<?xml version="1.0"?>
<svg xmlns="http://www.w3.org/2000/svg" height="128" width="128">
<g style="stroke-width:2;stroke-miterlimit:4">
<path d="M 16,112 L 48,48 L 64,56 L 52,40 L 64,16 L 100,88 L 84,84 L 104,96 L 112,112 L 80,112 C 80,112 80,80 64,80 C 48,80 48,112 48,112 L 16,112 z" style="fill:#01aad5;stroke:#000000"/>
<path d="M 34.265854,77.759648 L 48.464153,49.354353 C 53.482165,51.81659 58.410807,54.522885 63.491623,56.854085 C 63.608442,56.852404 63.857148,56.521964 64.174881,56.139447 C 64.680066,55.53125 64.816143,55.450467 64.630154,55.152652 L 53.170811,39.889208 L 64.003928,18.248775 C 72.40907,35.480625 81.54349,52.494857 89.785318,69.806603 C 81.990483,65.934244 73.544461,65.803607 65.058513,66.50326 C 54.01793,67.893363 44.14984,72.921349 34.328354,77.767458 L 34.265854,77.759648 z" style="fill:#1fb5da"/>
</g>
</svg>
