<?xml version="1.0"?>
<svg xmlns="http://www.w3.org/2000/svg" height="512" width="256">
<g transform="translate(0,448)">
<path d="m 128,28 c 0,0 -96,0 -96,-96 0,-64 48,-160 96,-160 48,0 96,96 96,160 0,96 -96,96 -96,96 z" style="fill:#ab6925;fill-opacity:1;stroke:#a7a770;stroke-width:4px;stroke-linecap:butt;stroke-linejoin:miter;stroke-opacity:1"/>
<path d="m 80,96 a 8,4 0 1 1 -16,0 8,4 0 1 1 16,0 z" style="opacity:0.87000002;fill:#000000;fill-opacity:1;fill-rule:evenodd;stroke:#000000;stroke-width:1px;stroke-linecap:butt;stroke-linejoin:miter;stroke-opacity:1" transform="matrix(4,0,0,4,-160,-524)"/>
<path d="m 112,-156 c 0,0 8,-0.15756 16,3.76368 8,3.92123 16,11.92123 16,-3.76368 l 0,-152 -32,0 0,152 z" style="fill:#4d1d0d;fill-opacity:1;stroke:none"/>
<path d="m 112,-308 32,0 0,8 -32,0 0,-8 z" style="fill:#a7a770;fill-opacity:1;stroke:#a7a770;stroke-width:4px;stroke-linecap:butt;stroke-linejoin:miter;stroke-opacity:1"/>
<path d="m 144,-308 8,-24 8,-72 c 0,0 -8.36364,0 -16,-8 -8.36364,7.63636 -16,0 -16,0 0,0 -8,8 -16,0 -7.63636,8.36364 -16,8 -16,8 l 8,72 8,24 32,0 z" style="fill:#431303;fill-opacity:1;stroke:#000000;stroke-width:4px;stroke-linecap:butt;stroke-linejoin:miter;stroke-opacity:1"/>
<g style="fill:#cccccc;stroke:#bbbbbb;stroke-width:0.5;stroke-miterlimit:4">
<path d="m 83,18 a 1,1 0 1 1 -2,0 1,1 0 1 1 2,0 z" transform="matrix(4,0,0,4,-212,-404)"/>
<path d="m 83,18 a 1,1 0 1 1 -2,0 1,1 0 1 1 2,0 z" transform="matrix(4,0,0,4,-216,-424)"/>
<path d="m 83,18 a 1,1 0 1 1 -2,0 1,1 0 1 1 2,0 z" transform="matrix(4,0,0,4,-220,-444)"/>
<path d="m 83,18 a 1,1 0 1 1 -2,0 1,1 0 1 1 2,0 z" transform="matrix(4,0,0,4,-224,-464)"/>
<path d="m 83,18 a 1,1 0 1 1 -2,0 1,1 0 1 1 2,0 z" transform="matrix(4,0,0,4,-188,-404)"/>
<path d="m 83,18 a 1,1 0 1 1 -2,0 1,1 0 1 1 2,0 z" transform="matrix(4,0,0,4,-184,-424)"/>
<path d="m 83,18 a 1,1 0 1 1 -2,0 1,1 0 1 1 2,0 z" transform="matrix(4,0,0,4,-180,-444)"/>
<path d="m 83,18 a 1,1 0 1 1 -2,0 1,1 0 1 1 2,0 z" transform="matrix(4,0,0,4,-176,-464)"/>
</g>
<path d="m 152,-212 0,112 c 0,0 24,0 40,16 12.64911,12.649112 24,0 24,-8 0,-8 -16,-80 -64,-120 z" style="fill:#0a0a0a;fill-opacity:1;stroke:none"/>
<path d="m 96,-76 64,0 0,8 -64,0 0,-8 z" style="fill:#4d1d0d;fill-opacity:1;stroke:#4a1a0a;stroke-width:2;stroke-linecap:butt;stroke-linejoin:miter;stroke-miterlimit:4;stroke-opacity:1;stroke-dasharray:none"/>
<g style="opacity:0.87;fill:#4d1d0d;stroke:#bbbbbf;stroke-width:0.5;stroke-miterlimit:4;stroke-dasharray:none">
<path d="m 58,87 a 1,1 0 1 1 -2,0 1,1 0 1 1 2,0 z" transform="matrix(4,0,0,4,-120,-420)"/>
<path d="m 58,87 a 1,1 0 1 1 -2,0 1,1 0 1 1 2,0 z" transform="matrix(4,0,0,4,-80,-420)"/>
</g>
<path d="m 108,-74 40,0 c 2,2 2,2 0,4 l -40,0 c -2,-2 -2,-2 0,-4 z" style="fill:#4d1d0d;fill-opacity:1;stroke:#4f1f0f;stroke-width:2;stroke-linecap:butt;stroke-linejoin:miter;stroke-miterlimit:4;stroke-opacity:1;stroke-dasharray:none"/>
<path d="m 144,28 0,-32 c 0,0 -4,0 -8,-8 -4,8 0,8 -8,0 -8,8 -4,8 -8,0 -4,8 -8,8 -8,8 l 0,32 32,0 z" style="fill:#cccccc;fill-opacity:1;stroke:#cccccc;stroke-width:2;stroke-linecap:butt;stroke-linejoin:round;stroke-miterlimit:4;stroke-opacity:1;stroke-dasharray:none"/>
<path d="m 108,-74 40,0 c 2,2 2,2 0,4 l -40,0 c -2,-2 -2,-2 0,-4 z" style="fill:#401000;fill-opacity:1;stroke:#421f2f;stroke-width:2;stroke-linecap:butt;stroke-linejoin:miter;stroke-miterlimit:4;stroke-opacity:0.18431373;stroke-dasharray:none"/>
</g>
</svg>
