<?xml version="1.0"?>
<svg xmlns="http://www.w3.org/2000/svg" height="100" width="100">
<g stroke="#333" stroke-width="3" fill="none" stroke-linecap="round" stroke-linejoin="round">
<path d="M30 6h-12c0 0 -4 0 -4 4l-3 28c0 0 0 4 -4 4 0 0 3 0 3 4l-3 28c0 0 0 4 4 4h12"/>
<path d="M78 22h12c0 0 4 0 4 4l-3 28c0 0 0 4 4 4 0 0 -5 0 -5 4l-3 28c0 0 0 4 -4 4h-12"/>
<circle cx="66" cy="6" r="4"/>
<circle cx="34" cy="94" r="4"/>
<path d="M62 6L54 35"/>
<path d="M38 94L46 65"/>
<circle cx="50" cy="50" r="16"/>
<circle cx="50.5" cy="50.7" r="14.2"/>
<circle cx="51.5" cy="52" r="13.5"/>
</g>
</svg>
