<?xml version="1.0" encoding="UTF-8" standalone="no"?>
<!-- Created with Inkscape (http://www.inkscape.org/) -->

<svg
   xmlns:dc="http://purl.org/dc/elements/1.1/"
   xmlns:cc="http://creativecommons.org/ns#"
   xmlns:rdf="http://www.w3.org/1999/02/22-rdf-syntax-ns#"
   xmlns:svg="http://www.w3.org/2000/svg"
   xmlns="http://www.w3.org/2000/svg"
   version="1.1"
   width="160"
   height="200"
   viewBox="-41.909 -36.073 160 199.99999"
   id="Layer_1"
   xml:space="preserve"><metadata
     id="metadata89"><rdf:RDF><cc:Work
         rdf:about=""><dc:format>image/svg+xml</dc:format><dc:type
           rdf:resource="http://purl.org/dc/dcmitype/StillImage" /><dc:title></dc:title></cc:Work></rdf:RDF></metadata><defs
     id="defs87" /><g
     transform="translate(-38.660084,-33.576436)"
     id="g3"><g
       id="g5"><path
         d="m 105.213,28.902 c 0.652,-0.635 1.304,-1.271 1.955,-1.905 0.326,-0.029 0.65,-0.059 0.977,-0.089 4.492,-0.305 6.838,-4.892 11.14,-5.577 4.494,-3.476 8.815,-2.258 13.237,0.296 4.297,2.481 8.637,4.896 12.379,8.172 1.515,1.325 4.303,2.656 3.097,5.005 -1.354,2.633 -3.787,-0.095 -5.754,0.033 -5.336,-0.412 -9.486,-3.602 -13.98,-5.979 -1.17,-0.619 -2.226,-1.551 -3.567,-1.708 -2.42,-0.284 -4.367,0.937 -5.278,2.943 -0.837,1.845 1.37,2.281 2.461,3.14 3.743,2.941 8.396,4.74 11.187,8.884 2.346,3.143 4.379,1.258 6.471,-0.366 0.771,-0.6 1.935,-1.264 2.583,-0.381 0.614,0.836 -0.491,1.723 -1.023,2.509 -1.312,0.577 -1.714,1.54 -2.07,2.99 -0.877,3.566 -2.192,7.163 -7.104,6.247 -1.612,-0.3 -2.489,0.68 -3.494,1.486 -1.554,1.249 -2.864,2.921 -4.589,3.815 -6.097,3.166 -7.961,8.755 -9.283,14.875 -1.729,8.012 0.289,11.762 8.188,14.391 11.31,3.766 20.797,9.963 27.2,20.298 2.115,3.454 2.438,7.06 0.912,10.819 -1.487,3.136 -2.938,6.548 -6.262,7.954 -4.779,2.025 -4.076,6.555 -5.418,10.172 -0.768,0.934 -0.407,2.708 -2.167,2.898 -2.821,2.252 -5.324,4.959 -8.854,6.199 -4.325,1.227 -8.65,0.796 -12.976,-0.01 -4.305,1.031 -6.908,-3.259 -10.82,-3.457 -1.414,-3.382 -0.035,-5.917 2.449,-8.117 0.498,-0.069 0.982,0.002 1.441,0.208 0.928,5.227 4.59,5.988 9.107,5.885 4.676,-0.107 9.278,-0.112 13.022,-3.491 1.59,-1.435 3.256,-2.745 2.421,-5.416 -0.76,-2.43 1.337,-3.443 2.868,-4.647 1.316,-1.385 1.92,-2.861 0.606,-4.599 -0.312,-0.342 -0.479,-0.738 -0.518,-1.196 2.354,-3.874 2.484,-3.872 6.165,0.1 4.013,-3.902 4.066,-8.117 0.054,-12.949 -4.708,-5.668 -10.788,-9.288 -17.71,-11.598 -1.577,-0.526 -3.194,-0.924 -4.78,-1.428 -10.493,-3.34 -14.146,-8.345 -14.146,-20.056 -2.771,1.645 -5.016,3.478 -7.239,5.298 -5.924,4.854 -12.23,9.188 -18.449,13.641 -1.841,1.317 -3.701,2.982 -6.335,2.104 -0.385,-0.307 -0.623,-0.704 -0.744,-1.177 1.781,-5.198 6.82,-7.348 10.362,-10.871 3.853,-3.833 8.446,-6.886 12.231,-10.828 1.492,-1.266 2.26,-3.367 4.402,-3.885 1.514,0.542 1.761,-1.078 2.661,-1.595 6.949,-4.729 13.208,-10.354 19.992,-15.28 2.692,-1.956 1.566,-2.997 -0.383,-4.24 -4.393,-3.534 -7.783,-8.216 -12.76,-11.063 -2.232,0 -4.637,0.501 -6.035,-1.997 -0.836,-1.939 1.11,-3.167 1.233,-4.864 0.123,-0.646 0.412,-1.191 0.937,-1.593 z"
         id="path7"
         style="fill:#3d3d27" /><path
         d="m 136.117,121.885 c 0.402,0.022 0.806,0.046 1.208,0.068 0.725,1.555 -0.233,2.885 -0.572,4.297 -5.026,5.347 -11.23,4.735 -17.432,3.14 -3.431,-0.884 -6.117,-1.712 -6.634,3.275 -0.248,2.391 -2.203,3.052 -4.485,2.249 -0.386,-0.017 -0.771,-0.033 -1.156,-0.05 -12.195,-2.068 -23.972,-5.217 -34.187,-13.55 -2.106,4.801 -2.061,9.786 -3.181,14.485 -0.714,2.996 -0.229,6.359 -2.62,8.862 -2.036,9.92 -4.373,19.789 -5.056,29.938 -1.953,4.992 -2.299,10.341 -3.201,15.543 -0.537,3.095 -2.17,4.347 -4.825,4.653 -7.064,0.819 -14.128,1.201 -20.948,-1.525 -0.417,-2.129 1.194,-2.266 2.575,-2.632 0.842,-0.111 1.679,-0.048 2.505,0.114 3.558,0.94 7.114,1.192 10.657,-0.078 3.36,-0.793 4.839,-2.989 5.326,-6.351 0.595,-4.11 1.671,-8.15 1.695,-12.346 0.012,-0.527 0.07,-1.045 0.154,-1.563 1.532,-6.477 2.976,-12.967 3.762,-19.583 0.55,-5.741 3.309,-11.301 1.395,-17.239 -0.148,-0.775 -0.135,-1.553 0.023,-2.321 0.119,-0.487 0.338,-0.937 0.636,-1.339 1.958,-0.938 2.035,-2.837 2.338,-4.619 1.588,-9.322 3.648,-18.557 5.226,-27.884 0.402,-1.236 1.179,-2.159 2.321,-2.774 0.482,-0.173 0.965,-0.166 1.444,0.016 0.078,0.519 0.158,1.036 0.235,1.555 1.691,1.807 1.574,4.128 1.104,6.146 -1.262,5.414 1.423,9.088 5.167,12.086 7.356,5.892 15.899,9.618 24.716,12.771 2.685,0.959 4.424,-0.021 5.887,-2.239 1.589,-2.409 4.052,-4.169 6.771,-3.105 6.485,2.532 12.767,2.55 19.152,0 z"
         id="path9"
         style="fill:#3b3d28" /><path
         d="M 1.967,6.839 C 2.102,6.552 2.123,6.256 2.029,5.953 9.837,1.319 18.527,0.39 27.325,0.003 c 1.652,-0.071 2.51,1.081 3.09,2.688 1.412,3.909 2.272,8.136 6.827,10.134 1.724,0.757 1.834,2.999 1.496,4.906 -2.039,2.521 0.616,4.085 1.341,5.964 0.979,2.541 2.386,4.917 3.609,7.363 2.563,1.564 2.266,4.585 3.478,6.837 4.298,9.348 8.596,18.694 12.893,28.042 0.4,0.341 0.568,0.775 0.536,1.297 -0.378,1.416 -0.452,3.138 -2.69,2.703 C 53.839,62.565 49.788,55.172 46.028,47.64 42.335,40.24 38.269,33.033 34.713,25.561 33.248,22.485 31.503,19.523 27.185,21.132 22,22.127 16.905,23.444 11.949,25.264 10.579,25.622 9.217,25.772 7.912,25.02 5.211,25.945 2.923,25.527 1.977,22.57 1.151,19.988 -2.29,17.179 2.46,14.727 4.038,13.913 2.419,12.415 2.314,11.226 2.442,10.891 2.732,10.48 2.896,10.563 c 6.369,3.235 12.966,1.524 19.505,0.928 1.347,-0.252 3.624,0.576 3.806,-1.066 C 26.457,8.154 23.633,8.5 22.264,7.536 21.293,6.951 20.72,5.95 19.868,5.242 14.271,4.376 9.262,6.434 4.222,8.352 3.134,8.347 2.336,7.911 1.967,6.839 z"
         id="path11"
         style="fill:#3d3c26" /><path
         d="m 133.063,42.115 c -4.942,-3.257 -9.854,-6.562 -14.846,-9.74 -1.637,-1.041 -1.982,-1.752 -0.477,-3.315 3.176,-3.301 5.887,-5.528 10.675,-1.797 4.093,3.188 9.181,5.1 13.828,7.575 -5.348,-0.463 -7.106,3.607 -9.18,7.277 z"
         id="path13"
         style="fill:#e9deaa" /><path
         d="m 36.486,191.73 c -1.273,0.24 -2.719,0.1 -3.458,1.541 -4.899,-1.518 -9.728,-3.193 -13.844,-6.406 -0.195,-0.993 0.421,-1.407 1.208,-1.703 5.648,1.492 11.484,2.529 16.094,6.568 z"
         id="path15"
         style="fill:#4c491c" /><path
         d="m 20.371,185.784 c -0.396,0.36 -0.792,0.721 -1.188,1.081 -4.48,-1.94 -6.521,-5.024 -4.014,-9.708 0.978,-1.826 -0.677,-3.888 0.938,-5.459 0.908,-0.102 1.765,-0.289 2.127,-1.288 1.107,0.993 1.409,2.396 1.007,3.62 -1.359,4.127 -0.745,7.98 1.13,11.754 z"
         id="path17"
         style="fill:#605c2d" /><path
         d="M 139.172,136.925"
         id="path19"
         style="fill:#efefe9" /><path
         d="M 137.005,139.824"
         id="path21"
         style="fill:#efefe9" /><path
         d="m 150.852,118.799 c 0.931,-3.711 0.338,-7.294 -0.912,-10.819 3.152,3.365 3.129,7 0.912,10.819 z"
         id="path23"
         style="fill:#efefe9" /><path
         d="m 47.165,37.894 c -1.159,-2.279 -2.317,-4.559 -3.478,-6.837 3.849,0.911 3.517,3.948 3.478,6.837 z"
         id="path25"
         style="fill:#efefe9" /><path
         d="m 20.371,185.784 c -3.727,-2.291 -5.143,-5.183 -3.104,-9.512 0.81,-1.718 0.674,-3.881 0.968,-5.854 0.312,-0.661 0.623,-1.312 0.936,-1.962 0.7,-6.97 3.207,-13.479 5.135,-20.135 5.218,-18.015 11.155,-35.82 15.697,-54.031 0.981,-3.939 0.893,-7.051 -2.069,-10.85 -4.589,-5.887 -6.329,-13.421 -7.168,-20.95 -0.091,-3.273 -0.036,-6.545 -0.055,-9.812 0.474,-7.056 -3.549,-12.71 -5.908,-18.882 -0.627,-2.475 -2.694,-4.358 -2.904,-7.011 -0.016,-1.653 -0.084,-3.492 1.771,-4.165 1.857,-0.675 3.004,0.775 4.034,2.064 1.033,1.295 2.126,2.481 3.821,2.886 4.884,3.026 6.111,8.608 8.378,13.174 4.271,8.604 9.706,16.578 13.438,25.443 1.07,2.542 3.461,3.985 4.98,6.146 0.2,0.466 0.063,0.984 0.15,1.437 0.2,1.037 0.517,-0.032 0.586,-0.085 14.821,-11.282 29.402,-22.872 44.147,-34.25 1.834,-1.415 4.062,-2.157 5.994,-3.409 4.868,3.349 9.747,6.686 12.899,11.895 -0.266,1.854 -1.728,2.553 -3.152,3.29 -2.299,1.26 -4.358,2.848 -6.275,4.631 -5.003,3.837 -7.517,9.976 -12.655,13.68 -1.199,1.594 -2.397,3.188 -3.599,4.782 -5.071,1.846 -8.116,6.372 -12.317,9.392 -3.709,2.666 -6.593,6.418 -10.684,8.684 -0.939,0.521 -1.154,1.546 -1.263,2.555 -0.346,0.983 -1.098,1.555 -2.006,1.965 -3.176,3.276 -2.725,7.619 -3.417,11.627 -0.999,5.776 -0.963,11.776 -3.682,17.183 -1.343,0.948 -2.074,0.297 -2.559,-0.996 -0.745,-1.984 -1.26,-4.061 -2.142,-5.483 1.208,3.624 3.473,7.413 3.701,11.842 0.021,0.616 0.044,1.231 0.065,1.849 0.557,7.134 -1.554,13.694 -4.322,20.117 -2.606,2.856 -5.944,5.386 -4.45,10.057 0.18,1.145 0.213,2.296 0.137,3.45 -1.199,3.501 0.497,4.921 3.75,5.229 0.342,5.709 -1.792,11.085 -2.242,16.698 -0.288,3.604 -3.805,2.434 -5.825,3.483 -3.671,0.682 -7.341,0.742 -11.005,-0.047 -0.559,-0.059 -1.115,-0.117 -1.673,-0.176 -5.503,-1.618 -11.008,-3.238 -16.111,-5.949 z"
         id="path27"
         style="fill:#ebe1a8" /><path
         d="M 109.198,36.027 C 91.832,50.479 73.875,64.154 55.353,77.712 c -0.513,-2.941 2.769,-2.824 2.594,-4.89 0.097,-1.009 -1.16,-2.35 0.716,-2.924 0.438,-0.982 0.875,-1.965 1.312,-2.948 0.784,1.695 1.258,3.613 3.745,1.396 9.154,-8.157 18.424,-16.186 27.65,-24.261 3.905,-3.071 7.812,-6.145 11.719,-9.217 1.727,2.023 4.169,0.265 6.109,1.159 z"
         id="path29"
         style="fill:#413c1d" /><path
         d="m 118.226,49.92 c 1.723,0.169 2.61,-1.277 3.872,-1.999 2.082,-0.272 3.334,1.133 5.412,2.661 -9.059,5.664 -15.99,13.53 -25.301,18.249 1.584,-5.873 6.609,-9.067 10.329,-13.278 1.925,-1.848 4.25,-3.293 5.688,-5.633 z"
         id="path31"
         style="fill:#eeedd9" /><path
         d="m 72.153,94.932 c -1.835,-2.162 -0.301,-2.879 1.396,-4.062 6.562,-4.574 12.729,-9.618 18.022,-15.699 1.056,-1.212 2.954,-2.136 4.846,-0.868 -7.776,6.789 -15.554,13.578 -23.329,20.368 -0.336,0.004 -0.647,0.091 -0.935,0.261 z"
         id="path33"
         style="fill:#eee8c5" /><path
         d="m 113.108,55.882 c -3.259,4.632 -8.133,7.902 -10.897,12.949 -0.55,0.808 -0.874,2.335 -2.195,0.689 3.057,-5.693 7.154,-10.52 12.162,-14.585 0.447,0.181 0.75,0.502 0.93,0.947 z"
         id="path35"
         style="fill:#5a5433" /><path
         d="m 144.439,32.687 c -5.627,-1.337 -10.246,-4.222 -14.135,-8.334 5.605,1.258 9.909,4.805 14.135,8.334 z"
         id="path37"
         style="fill:#d9d8c2" /><path
         d="m 62.115,125.919 c 2.504,-8.228 2.763,-16.818 4,-25.248 0.389,-2.646 1.329,-3.96 4.031,-3.773 0.836,4.196 -0.994,8.065 -1.59,12.075 -1.003,6.735 -2.438,13.406 -3.669,20.109 -0.396,2.162 -1.271,2.391 -2.706,0.769 -0.738,-1.299 -1.034,-2.604 -0.066,-3.932 z"
         id="path39"
         style="fill:#f7f7e1" /><path
         d="m 52.144,166.356 c -10e-4,-0.965 -10e-4,-1.931 -0.002,-2.896 -0.02,-4.489 1.489,-8.095 5.829,-10.055 0.938,-0.913 1.178,-2.688 3.035,-2.477 -1.162,6.671 -1.433,13.517 -3.909,19.931 -5.172,2.37 -3.88,-2.366 -4.953,-4.503 z"
         id="path41"
         style="fill:#e2daae" /><path
         d="m 61.005,150.93 c -0.652,1.012 -1.305,2.022 -1.958,3.034 -0.998,0.337 -1.549,-0.146 -1.887,-1.024 -0.477,-4.926 3.072,-8.716 3.808,-13.38 0.343,-2.182 -2.298,-5.039 1.146,-6.645 2.763,3.909 0.512,7.858 0.051,11.776 -0.248,2.098 -0.765,4.161 -1.16,6.239 z"
         id="path43"
         style="fill:#ece9ca" /><path
         d="m 62.115,125.919 c 0.021,1.311 0.044,2.62 0.066,3.932 -0.044,0.405 -0.088,0.812 -0.133,1.218 -1.905,-4.929 -3.809,-9.856 -5.713,-14.785 3.914,2.118 3.603,6.583 5.78,9.635 z"
         id="path45"
         style="fill:#5b5523" /><path
         d="m 52.144,166.356 c 1.082,2.127 1.226,5.286 4.953,4.505 0.196,0.281 0.241,0.584 0.134,0.91 -5.153,1.444 -6.363,0.155 -5.087,-5.415 z"
         id="path47"
         style="fill:#928a59" /><path
         d="m 38.157,191.906 c 3.668,0.016 7.336,0.031 11.005,0.047 -3.675,1.52 -7.343,1.589 -11.005,-0.047 z"
         id="path49"
         style="fill:#4c491c" /><path
         d="m 32.211,62.899 c 1.471,5.776 2.098,11.844 5.324,17.036 1.083,1.742 0.375,5.291 4.393,4.598 0.78,-0.134 0.985,1.992 0.817,3.113 -0.417,2.79 -0.847,5.6 -1.578,8.317 -6.566,24.396 -13.795,48.594 -21.998,72.493 -2.334,-2.541 -0.28,-5.154 0.284,-7.433 5.425,-21.942 10.436,-43.997 16.968,-65.647 0.961,-3.186 0.508,-5.655 -0.785,-8.514 C 26.32,66.281 17.136,45.64 7.909,25.017 c 1.021,-0.535 2.051,-0.87 3.118,-0.108 4.088,1.965 4.31,6.636 6.816,9.708 0.616,1.243 0.649,2.703 1.448,3.881 1.599,3.502 2.789,7.222 5.416,10.18 1.247,4.974 4.818,9.05 5.527,14.238 0.09,0.654 0.4,1.063 0.272,0.417 -0.047,-0.238 0.354,-0.515 0.643,-0.723 0.433,-0.146 0.778,-0.036 1.062,0.289 z"
         id="path51"
         style="fill:#403c1f" /><path
         d="m 23.167,12.743 c -3.447,0.375 -6.89,0.788 -10.34,1.113 C 9.348,14.184 5.458,15.623 3.665,10.789 3.658,10.77 2.786,11.073 2.316,11.227 1.935,10.444 1.552,9.662 1.17,8.88 7.166,7.359 13.253,6.647 19.442,6.808 c 2.294,1.314 4.928,2.425 3.725,5.935 z"
         id="path53"
         style="fill:#e1dca9" /><path
         d="M 20.101,7.792 C 13.787,8.086 7.578,10.216 1.17,8.88 1.017,8.036 0.739,7.143 1.967,6.839 2.764,7.161 3.561,7.485 4.358,7.807 9.843,6.026 15.5,4.998 21.155,3.96 21.483,4.873 21.81,5.786 22.137,6.699 21.8,7.702 21.006,7.85 20.101,7.792 z"
         id="path55"
         style="fill:#3a340e" /><path
         d="M 17.146,35.039 C 13.897,32.393 13.518,28.017 11.03,24.911 15.869,21.468 21.668,21.1 27.193,19.857 c 3.253,2.157 5.21,4.892 4.024,9.026 -2.229,-0.056 -3.309,-1.764 -4.58,-3.191 -0.784,-0.881 -1.014,-2.832 -2.687,-2.096 -1.366,0.602 -0.604,2.312 -0.877,3.512 -0.777,3.104 2.454,4.772 2.691,7.52 2.928,5.764 5.456,11.649 5.884,18.219 -0.181,3.351 0.42,6.723 -0.354,10.048 -0.603,0.409 -0.519,2.423 -0.873,1.616 -2.268,-5.14 -6.123,-9.699 -6.229,-15.688 -0.564,-0.987 -0.471,-2.127 -0.751,-3.185 -0.51,-4.481 -4.457,-6.916 -6.295,-10.599 z"
         id="path57"
         style="fill:#e5ddaa" /><path
         d="m 31.217,28.884 c -0.688,-3.301 -2.704,-6.009 -4.024,-9.025 3.574,-2.072 5.679,-1.253 7.616,2.651 7.133,14.375 14.658,28.558 21.998,42.83 0.748,1.453 1.243,3.036 1.855,4.56 0.52,1.16 0.358,2.154 -0.716,2.924 -3.742,-1.638 -5.299,-4.817 -7.017,-8.387 -4.3,-8.938 -9.085,-17.669 -14.159,-26.195 -1.848,-3.11 -2.071,-7.235 -5.553,-9.358 z"
         id="path59"
         style="fill:#f8f6ed" /><path
         d="M 21.155,3.96 C 15.923,6.843 10.256,7.829 4.358,7.806 9.308,3.687 15.114,3.309 21.155,3.96 z"
         id="path61"
         style="fill:#c6c2a5" /><path
         d="m 20.101,7.792 c 0.295,-1.079 1.309,-0.82 2.037,-1.092 1.651,0.595 3.803,-1.1 5.064,0.884 0.857,1.351 2.525,3.121 1.562,4.446 -1.229,1.688 -3.667,0.681 -5.597,0.713 -0.08,-2.235 -2.361,-3.105 -3.066,-4.951 z"
         id="path63"
         style="fill:#e3e2d4" /><path
         d="m 31.019,51.934 c -1.305,-6.201 -3.574,-12.082 -5.953,-17.927 -0.502,-1.067 0.06,-1.166 0.911,-0.999 2.775,6.063 6.142,11.937 6.172,18.896 -0.361,0.59 -0.738,0.599 -1.13,0.03 z"
         id="path65"
         style="fill:#635a2e" /><path
         d="m 46.97,164.851 c 0.017,5.556 0.446,11.064 2.062,16.445 -3.935,-6.547 -4.575,-13.534 -3.09,-20.812 1.46,1.192 0.177,3.031 1.028,4.367 z"
         id="path67"
         style="fill:#645a29" /><path
         d="m 57.161,152.94 c 0.629,0.342 1.257,0.684 1.886,1.023 -4.97,1.227 -5.326,5.807 -6.906,9.496 -1.552,-4.52 0.005,-7.782 5.02,-10.519 z"
         id="path69"
         style="fill:#6e6939" /><path
         d="m 46.97,164.851 c -1.193,-1.256 -0.617,-2.928 -1.026,-4.367 -0.33,-2.851 1.011,-5.165 2.391,-7.467 0.843,-0.12 1.339,0.087 1.014,1.07 -1.714,3.386 -2.147,7.053 -2.379,10.764 z"
         id="path71"
         style="fill:#5e5626" /><path
         d="m 113.108,55.882 c -0.311,-0.314 -0.621,-0.631 -0.932,-0.945 1.566,-2.214 3.804,-3.62 6.049,-5.018 0.008,3.459 -3.314,4.058 -5.117,5.963 z"
         id="path73"
         style="fill:#59522c" /><path
         d="m 25.978,33.009 c -0.304,0.333 -0.606,0.666 -0.911,0.999 -1.224,-2.107 -2.884,-4.086 -3.562,-6.355 -0.877,-2.936 0.93,-0.586 1.569,-0.545 0.967,1.967 1.935,3.934 2.904,5.901 z"
         id="path75"
         style="fill:#867b52" /><path
         d="m 49.347,154.088 c -0.338,-0.356 -0.676,-0.715 -1.014,-1.07 1.015,-2.386 2.97,-3.688 5.641,-4.302 -1.542,1.791 -3.084,3.582 -4.627,5.372 z"
         id="path77"
         style="fill:#877f4c" /><path
         d="m 31.019,51.934 c 0.377,-0.011 0.754,-0.021 1.131,-0.029 0.021,3.665 0.041,7.329 0.062,10.994 -0.305,-0.002 -0.611,-0.004 -0.917,-0.006 -0.644,-3.64 -0.491,-7.299 -0.276,-10.959 z"
         id="path79"
         style="fill:#443c0e" /><path
         d="m 24.168,46.062 c 0.632,0.914 0.81,1.833 0.024,2.76 -4.123,-2.037 -3.977,-6.775 -6.3,-9.951 0.226,-1.626 1.211,-1.266 1.961,-0.584 2.302,2.088 4.042,4.539 4.315,7.775 z"
         id="path81"
         style="fill:#cac8a1" /><path
         d="m 24.168,46.062 c -2.164,-2.334 -1.869,-6.813 -6.275,-7.191 -1.205,-1.092 -0.683,-2.52 -0.748,-3.832 3.669,2.829 8.099,5.172 7.023,11.023 z"
         id="path83"
         style="fill:#585225" /></g></g></svg>