<?xml version="1.0" encoding="utf-8" standalone="no"?>
<svg xmlns="http://www.w3.org/2000/svg" xmlns:xlink="http://www.w3.org/1999/xlink" height="47" width="26">
<defs>
	<g id="turtle">
		<path id="head" d="m13,1 c-1,0 -4,2 -4,4 0,2 1,1 1,5 0,0 0,0 6,0 0,-4 1,-3 1,-5 0,-2 -3,-4 -4,-4"/>
		<circle id="eye" cx="11.7" cy="4" r=".5" style="fill:#fff;stroke:none"/>
		<use xlink:href="#eye" x="-26" y="0" transform="scale(-1 1)"/>
		<path id="arm" d="m10,12 c-1,-2 -3,-3 -4,-3 -4,0 -5,10 -4,12 2,0 2,-9 7,-6"/>
		<use xlink:href="#arm" x="-26" y="0" transform="scale(-1 1)"/>
		<path id="leg" d="m8,21 c-3,3 -3,10 -2,10 1,0 2,-3 5,-5"/>
		<use xlink:href="#leg" x="-26" y="0" transform="scale(-1 1)"/>
		<path id="tail" d="m10,27 q2,4 3,4 1,0 3,-4"/>
		<path id="body" d="m13,9 q-7,0 -7,7 1,13 7,13 6,0 7,-13 0,-7 -7,-7"/>
	</g>
	<mask id="turtle-mask">
		<use xlink:href="#turtle" style="stroke-width:.6;stroke:#000;fill:#fff"/>
	</mask>
	<mask id="flame-mask">
		<rect id="bg" x="0" y="0" width="26" height="47" fill="#fff"/>
		<use xlink:href="#turtle" style="stroke-width:.6;stroke:#000;fill:#000"/>
	</mask>
</defs>
<g id="flame" style="opacity:.9;fill:#f90" mask="url(#flame-mask)">
	<path id="flame-r" d="m7,26 q6,14 6,21 0,-7 6,-21" style="fill:#f33"/>
	<path id="flame-o" d="m9,26 q4,14 4,19 0,-5 4,-19"/>
	<path id="flame-y" d="m11,26 q2,14 2,17 0,-3 2,-17" style="fill:#fc0"/>
</g>
<use xlink:href="#turtle" style="fill:#295" mask="url(#turtle-mask)"/>
</svg>
